<?xml version="1.0" encoding="UTF-8"?>
<!DOCTYPE svg PUBLIC "-//W3C//DTD SVG 1.1//EN" "http://www.w3.org/Graphics/SVG/1.1/DTD/svg11.dtd">
<!-- Creator: CorelDRAW 2019 (64-Bit) -->
<svg xmlns="http://www.w3.org/2000/svg" xml:space="preserve" width="210mm" height="297mm" version="1.1" style="shape-rendering:geometricPrecision; text-rendering:geometricPrecision; image-rendering:optimizeQuality; fill-rule:evenodd; clip-rule:evenodd"
viewBox="0 0 21000 29700"
 xmlns:xlink="http://www.w3.org/1999/xlink">
 <defs>
  <style type="text/css">
   <![CDATA[
    .str0 {stroke:#185ABD;stroke-width:437.5;stroke-miterlimit:22.9256}
    .fil1 {fill:none}
    .fil2 {fill:#185ABD}
    .fil0 {fill:white}
    .fil3 {fill:white;fill-rule:nonzero}
   ]]>
  </style>
 </defs>
 <g id="Ebene_x0020_1">
  <metadata id="CorelCorpID_0Corel-Layer"/>
  <g id="_1836698241840">
   <path class="fil0 str0" d="M12954.27 243.26l-8787.54 0c-241.63,0 -437.5,195.87 -437.5,437.5l0 17062.5c0,241.63 195.87,437.5 437.5,437.5l12687.5 0c241.63,0 437.5,-195.87 437.5,-437.5l0 -13162.54c0,-116.03 -46.09,-227.3 -128.14,-309.36l-3899.97 -3899.96c-82.05,-82.05 -193.33,-128.14 -309.35,-128.14z"/>
   <path class="fil1 str0" d="M12916.73 243.26l0 3937.5c0,241.63 195.87,437.5 437.5,437.5l3937.5 0"/>
   <g>
    <path class="fil2" d="M15541.73 13368.26l-6781.25 0 0 -437.5 6781.25 0c120.82,0 218.75,97.93 218.75,218.75l0 0c0,120.82 -97.93,218.75 -218.75,218.75z"/>
    <path class="fil2" d="M15541.73 8118.26l-6781.25 0 0 -437.5 6781.25 0c120.82,0 218.75,97.93 218.75,218.75l0 0c0,120.82 -97.93,218.75 -218.75,218.75z"/>
    <path class="fil2" d="M15541.73 9430.76l-6781.25 0 0 -437.5 6781.25 0c120.82,0 218.75,97.93 218.75,218.75l0 0c0,120.82 -97.93,218.75 -218.75,218.75z"/>
    <path class="fil2" d="M15541.73 10743.26l-6781.25 0 0 -437.5 6781.25 0c120.82,0 218.75,97.93 218.75,218.75l0 0c0,120.82 -97.93,218.75 -218.75,218.75z"/>
    <path class="fil2" d="M15541.73 12055.76l-6781.25 0 0 -437.5 6781.25 0c120.82,0 218.75,97.93 218.75,218.75l0 0c0,120.82 -97.93,218.75 -218.75,218.75z"/>
   </g>
   <path class="fil2" d="M885.48 14899.51l7000 0c483.24,0 875,-391.76 875,-875l0 -7000c0,-483.24 -391.76,-875 -875,-875l-7000 0c-483.24,0 -875,391.76 -875,875l0 7000c0,483.24 391.76,875 875,875z"/>
   <path class="fil3" d="M810.41 10240.52c115.42,-4.45 209.43,-48.99 282.05,-135.86 72.61,-85.74 121.53,-203.79 145.22,-353.01 23.7,-150.34 36.69,-406.47 38.22,-769.51 0.76,-363.04 4.59,-602.47 11.46,-718.28 13.77,-182.63 38.22,-328.52 74.91,-439.88 35.93,-110.25 81.02,-199.34 134.53,-266.15 53.5,-65.71 122.29,-116.93 205.61,-151.46 56.56,-21.15 148.28,-32.29 276.69,-32.29l124.59 0 0 514.49 -68.79 0c-153.63,0 -255.29,41.2 -305.74,122.5 -49.68,81.29 -74.9,262.81 -74.9,545.67 0,569.06 -8.41,928.75 -25.23,1079.09 -26.75,232.75 -73.38,412.04 -138.35,537.88 -65.73,125.84 -168.15,238.31 -308.8,335.2 165.87,100.22 285.88,252.79 360.78,457.69 74.14,204.91 111.6,541.22 111.6,1007.82 0,423.18 1.53,674.85 4.58,755.03 12.23,148.12 42.04,250.57 90.2,309.59 48.91,59.02 143.69,87.97 285.09,87.97l69.56 0 0 514.49 -125.35 0c-145.99,0 -252.24,-17.81 -317.97,-52.33 -94.78,-50.12 -174.27,-130.3 -236.95,-242.77 -62.68,-111.36 -103.19,-252.79 -121.53,-424.29 -19.11,-171.5 -29.05,-453.24 -30.57,-844.12 -1.53,-390.88 -14.53,-661.49 -38.22,-810.71 -23.7,-150.34 -71.09,-268.38 -142.94,-355.25 -72.61,-86.86 -165.1,-132.52 -279.75,-136.97l0 -534.54z"/>
   <path id="1" class="fil3" d="M2342.17 10240.52c115.41,-4.45 209.43,-48.99 282.04,-135.86 72.61,-85.74 121.54,-203.79 145.23,-353.01 23.69,-150.34 36.69,-406.47 38.22,-769.51 0.76,-363.04 4.58,-602.47 11.46,-718.28 13.76,-182.63 38.22,-328.52 74.91,-439.88 35.92,-110.25 81.02,-199.34 134.52,-266.15 53.51,-65.71 122.3,-116.93 205.62,-151.46 56.55,-21.15 148.28,-32.29 276.69,-32.29l124.59 0 0 514.49 -68.79 0c-153.64,0 -255.3,41.2 -305.75,122.5 -49.67,81.29 -74.9,262.81 -74.9,545.67 0,569.06 -8.41,928.75 -25.22,1079.09 -26.76,232.75 -73.38,412.04 -138.35,537.88 -65.74,125.84 -168.16,238.31 -308.8,335.2 165.87,100.22 285.87,252.79 360.77,457.69 74.15,204.91 111.6,541.22 111.6,1007.82 0,423.18 1.53,674.85 4.59,755.03 12.23,148.12 42.04,250.57 90.19,309.59 48.92,59.02 143.7,87.97 285.1,87.97l69.56 0 0 514.49 -125.36 0c-145.99,0 -252.23,-17.81 -317.96,-52.33 -94.78,-50.12 -174.28,-130.3 -236.95,-242.77 -62.68,-111.36 -103.19,-252.79 -121.54,-424.29 -19.11,-171.5 -29.04,-453.24 -30.57,-844.12 -1.53,-390.88 -14.52,-661.49 -38.21,-810.71 -23.7,-150.34 -71.09,-268.38 -142.94,-355.25 -72.61,-86.86 -165.1,-132.52 -279.75,-136.97l0 -534.54z"/>
   <path id="2" class="fil3" d="M6423.04 10240.52l0 534.54c-115.42,4.45 -209.43,50.11 -282.05,136.97 -72.61,86.87 -121.53,204.91 -145.22,353.02 -23.7,149.22 -36.7,404.24 -38.22,767.28 -0.77,363.04 -4.59,601.35 -11.47,717.17 -13.75,183.75 -38.22,330.74 -74.9,440.99 -36.7,109.14 -81.79,197.11 -136.06,263.93 -53.5,65.7 -122.29,116.93 -206.37,151.45 -56.57,23.39 -149.05,35.63 -278.23,35.63l-125.35 0 0 -514.49 69.56 0c155.16,0 257.58,-41.2 308.79,-122.49 50.45,-81.3 75.68,-263.93 75.68,-547.9 0,-543.45 6.11,-886.44 18.33,-1032.32 23.71,-240.54 71.85,-433.2 143.7,-577.97 72.62,-144.77 174.28,-256.13 306.51,-337.42 -173.51,-119.16 -295.81,-277.29 -366.89,-473.29 -71.08,-197.11 -106.25,-528.97 -106.25,-996.69 0,-423.17 -1.52,-677.07 -4.58,-759.48 -10.7,-144.77 -39.75,-247.22 -88.67,-304.02 -48.91,-57.91 -144.46,-86.86 -286.62,-86.86l-69.56 0 0 -514.49 125.35 0c145.99,0 252.23,17.82 317.97,52.34 95.55,47.88 174.27,128.07 236.95,241.65 62.68,112.48 103.18,255.02 121.53,426.52 19.11,171.5 29.05,453.24 30.58,845.23 1.52,390.88 14.52,661.49 38.22,809.6 23.69,149.22 72.61,267.27 145.22,354.13 72.62,86.86 166.63,132.52 282.05,136.97z"/>
   <path id="3" class="fil3" d="M7954.79 10240.52l0 534.54c-115.42,4.45 -209.43,50.11 -282.05,136.97 -72.61,86.87 -121.52,204.91 -145.22,353.02 -23.7,149.22 -36.69,404.24 -38.21,767.28 -0.77,363.04 -4.6,601.35 -11.47,717.17 -13.76,183.75 -38.22,330.74 -74.91,440.99 -36.69,109.14 -81.79,197.11 -136.06,263.93 -53.5,65.7 -122.29,116.93 -206.37,151.45 -56.56,23.39 -149.05,35.63 -278.22,35.63l-125.36 0 0 -514.49 69.56 0c155.16,0 257.59,-41.2 308.8,-122.49 50.45,-81.3 75.67,-263.93 75.67,-547.9 0,-543.45 6.12,-886.44 18.34,-1032.32 23.7,-240.54 71.85,-433.2 143.7,-577.97 72.62,-144.77 174.28,-256.13 306.5,-337.42 -173.5,-119.16 -295.8,-277.29 -366.88,-473.29 -71.09,-197.11 -106.25,-528.97 -106.25,-996.69 0,-423.17 -1.52,-677.07 -4.59,-759.48 -10.7,-144.77 -39.74,-247.22 -88.66,-304.02 -48.92,-57.91 -144.46,-86.86 -286.63,-86.86l-69.56 0 0 -514.49 125.36 0c145.99,0 252.23,17.82 317.97,52.34 95.54,47.88 174.27,128.07 236.95,241.65 62.67,112.48 103.18,255.02 121.53,426.52 19.11,171.5 29.04,453.24 30.58,845.23 1.52,390.88 14.51,661.49 38.21,809.6 23.7,149.22 72.61,267.27 145.22,354.13 72.62,86.86 166.63,132.52 282.05,136.97z"/>
  </g>
 </g>
</svg>
